# xmcd
#
# Track frame offsets: 
#        150
#        27357
#        49667
#        71106
#        88711
#        108732
#        128757
#        149026
#        188586
#        214519
#        235563
#        257444
#        276728
#        297305
#        319150
#        347560
#
# Disc length: 4762 seconds
#
# Revision: 0
# Processed by: cddbd v1.5.2PL0 Copyright (c) Steve Scherf et al.
# Submitted via: ExactAudioCopy v0.95a5
#
DISCID=f9129810
DTITLE=CARLOS SANTANA - Super Hits Of...CD-3
DYEAR=2005
DGENRE=Blues
TTITLE0=On Avenue-Santana Brothers
TTITLE1=Stripped Me Naked (with John Lee Hooker)
TTITLE2=She Can't Let Go-Freedom
TTITLE3=Love Is You
TTITLE4=Bella
TTITLE5=Gypsy Woman
TTITLE6=Full Moon
TTITLE7=You Touch
TTITLE8=Love Of My Life
TTITLE9=Africa Bamba
TTITLE10=Smooth
TTITLE11=Maria Maria
TTITLE12=Corazon Espinado
TTITLE13=El Farol
TTITLE14=Primavera
TTITLE15=Europa (reprise)
EXTD=
EXTT0=
EXTT1=
EXTT2=
EXTT3=
EXTT4=
EXTT5=
EXTT6=
EXTT7=
EXTT8=
EXTT9=
EXTT10=
EXTT11=
EXTT12=
EXTT13=
EXTT14=
EXTT15=
PLAYORDER=
